<?xml version="1.0" encoding="UTF-8"?>
<svg version="1.1" xmlns="http://www.w3.org/2000/svg" width="500" height="500">
<path d="M0 0 C165 0 330 0 500 0 C500 165 500 330 500 500 C335 500 170 500 0 500 C0 335 0 170 0 0 Z " fill="#FEFEFE" transform="translate(0,0)"/>
<path d="M0 0 C5.34740414 1.95385921 8.45618143 4.91236287 11 10 C11.40226867 15.22949274 10.9287695 18.60684575 8 23 C4.34749588 26.46987891 1.4034317 27.30013186 -3.5 27.5 C-8.4034317 27.30013186 -11.34749588 26.46987891 -15 23 C-17.910372 18.634442 -18.6506249 15.20499921 -18 10 C-14.11361608 2.37670847 -8.46679742 -1.38855478 0 0 Z " fill="#EE0F0F" transform="translate(300,236)"/>
<path d="M0 0 C2.51625 -0.0825 5.0325 -0.165 7.625 -0.25 C8.79603271 -0.30462402 8.79603271 -0.30462402 9.99072266 -0.36035156 C15.1105801 -0.4409383 17.94242302 0.63800765 22 4 C25.13112821 8.34317784 25.37627412 11.76000726 24.57421875 16.8828125 C23.72093512 20.02893309 22.38853038 21.81051382 20 24 C15.77780821 26.19921786 11.83768249 26.23979424 7.1875 26.125 C4.815625 26.08375 2.44375 26.0425 0 26 C0 17.42 0 8.84 0 0 Z " fill="#F40607" transform="translate(315,237)"/>
<path d="M0 0 C2.51625 -0.0825 5.0325 -0.165 7.625 -0.25 C8.79603271 -0.30462402 8.79603271 -0.30462402 9.99072266 -0.36035156 C15.11471525 -0.44100339 17.92622922 0.65631766 22 4 C24.35125704 6.89988368 24.9558484 8.65940197 25.4375 12.375 C24.90925031 16.75192601 23.88017768 19.65276648 21 23 C14.599233 27.31356037 7.48820521 26.21394872 0 26 C0 17.42 0 8.84 0 0 Z " fill="#070707" transform="translate(211,236)"/>
<path d="M0 0 C7 0 7 0 9.21484375 2.1171875 C9.78332031 3.02726563 10.35179687 3.93734375 10.9375 4.875 C11.52402344 5.77992188 12.11054688 6.68484375 12.71484375 7.6171875 C14 10 14 10 14 12 C14.66 12 15.32 12 16 12 C16.3403125 10.9790625 16.3403125 10.9790625 16.6875 9.9375 C17.75230467 7.55436575 18.81997042 5.40073865 20.1875 3.1875 C20.55230469 2.58292969 20.91710937 1.97835937 21.29296875 1.35546875 C23 0 23 0 30 0 C30 8.58 30 17.16 30 26 C27.36 26 24.72 26 22 26 C21.67 22.37 21.34 18.74 21 15 C20.62875 15.825 20.2575 16.65 19.875 17.5 C18 20 18 20 15 20.625 C12 20 12 20 10.125 17.5 C9.75375 16.675 9.3825 15.85 9 15 C8.67 18.63 8.34 22.26 8 26 C5.36 26 2.72 26 0 26 C0 17.42 0 8.84 0 0 Z " fill="#0A0A0A" transform="translate(152,236)"/>
<path d="M0 0 C4.65156533 1.7329361 7.29196906 3.83379855 10 8 C10 8.99 10 9.98 10 11 C6.6875 11.1875 6.6875 11.1875 3 11 C1.375 9.5 1.375 9.5 0 8 C-3.12414314 7.68758569 -4.99825776 7.99941925 -8 9 C-8.04125 10.27875 -8.0825 11.5575 -8.125 12.875 C-8.15980469 13.95394531 -8.15980469 13.95394531 -8.1953125 15.0546875 C-8.18331689 17.23863645 -8.18331689 17.23863645 -6 19 C-2.5 19.33333333 -2.5 19.33333333 1 19 C1.66 18.34 2.32 17.68 3 17 C6.625 16.875 6.625 16.875 10 17 C9.52153935 21.30614589 8.34073619 23.24880549 5 26 C0.02778434 27.65740522 -6.121907 28.36539451 -10.984375 26.05859375 C-14.17708274 23.53761907 -16.06496498 20.92714707 -17 17 C-17.45659831 12.81451546 -17.29820536 10.58494127 -15.375 6.8125 C-10.84069695 1.4429306 -7.12158671 -0.89019834 0 0 Z " fill="#F50505" transform="translate(269,236)"/>
<path d="M0 0 C5.94 0 11.88 0 18 0 C18 1.98 18 3.96 18 6 C14.37 6 10.74 6 7 6 C7 7.32 7 8.64 7 10 C10.3 10 13.6 10 17 10 C17 11.98 17 13.96 17 16 C13.7 16 10.4 16 7 16 C7 17.32 7 18.64 7 20 C10.63 20 14.26 20 18 20 C18 21.98 18 23.96 18 26 C12.06 26 6.12 26 0 26 C0 17.42 0 8.84 0 0 Z " fill="#E80C0D" transform="translate(344,237)"/>
<path d="M0 0 C5.94 0 11.88 0 18 0 C18 1.98 18 3.96 18 6 C14.37 6 10.74 6 7 6 C7 7.32 7 8.64 7 10 C10.3 10 13.6 10 17 10 C17 11.98 17 13.96 17 16 C13.7 16 10.4 16 7 16 C7 17.32 7 18.64 7 20 C10.63 20 14.26 20 18 20 C18 21.98 18 23.96 18 26 C12.06 26 6.12 26 0 26 C0 17.42 0 8.84 0 0 Z " fill="#070707" transform="translate(188,236)"/>
<path d="M0 0 C3.5 1.5 3.5 1.5 6 3 C3.3333581 4.33332095 1.83319697 3.67102033 -1 3 C-0.58533302 6.63568353 -0.58533302 6.63568353 1.5625 9.4375 C3 11 3 11 3.375 14 C3 17 3 17 1.80078125 18.67578125 C-0.62817547 20.46193381 -2.20722563 20.30361459 -5.1875 20.1875 C-6.53908203 20.14689453 -6.53908203 20.14689453 -7.91796875 20.10546875 C-8.60503906 20.07066406 -9.29210937 20.03585937 -10 20 C-10.10957031 19.37351563 -10.21914063 18.74703125 -10.33203125 18.1015625 C-10.56986328 16.87566406 -10.56986328 16.87566406 -10.8125 15.625 C-11.03873047 14.40683594 -11.03873047 14.40683594 -11.26953125 13.1640625 C-11.87544942 10.64179359 -11.87544942 10.64179359 -15 9 C-15.08333357 13.8333472 -14.95261487 18.23692563 -14 23 C-17.16335648 20.11171799 -17.90454686 18.01180326 -18.3125 13.6875 C-17.83274239 8.02636016 -15.46822047 5.26800859 -11.25 1.625 C-7.26830876 -0.36584562 -4.36586149 -0.75363085 0 0 Z " fill="#EB1A1A" transform="translate(300,236)"/>
<path d="M0 0 C2.5575 -0.061875 5.115 -0.12375 7.75 -0.1875 C8.94834473 -0.22846802 8.94834473 -0.22846802 10.17089844 -0.27026367 C13.49093022 -0.30915069 15.64143518 -0.21547296 18.515625 1.51171875 C19.00546875 2.00285156 19.4953125 2.49398437 20 3 C17.69 3 15.38 3 13 3 C13 3.66 13 4.32 13 5 C13.99 5.33 14.98 5.66 16 6 C16 6.66 16 7.32 16 8 C16.66 8 17.32 8 18 8 C18.48241206 15.35678392 18.48241206 15.35678392 16.5 18 C12.87920862 19.44831655 9.88716564 19.19435828 6 19 C6 14.38 6 9.76 6 5 C7.32 4.34 8.64 3.68 10 3 C10.33 2.34 10.66 1.68 11 1 C7.7 1 4.4 1 1 1 C1.33 8.59 1.66 16.18 2 24 C9.86995014 24.18301762 9.86995014 24.18301762 17.125 23 C17.87007813 22.814375 18.61515625 22.62875 19.3828125 22.4375 C19.91648437 22.293125 20.45015625 22.14875 21 22 C18.94766315 24.2477975 17.99332739 25.0022242 15 26 C12.42502932 26.07035439 9.88550071 26.0934934 7.3125 26.0625 C3.6928125 26.0315625 3.6928125 26.0315625 0 26 C0 17.42 0 8.84 0 0 Z " fill="#CB1D1E" transform="translate(315,237)"/>
<path d="M0 0 C0.99 0 1.98 0 3 0 C3.33 1.65 3.66 3.3 4 5 C4.66 5 5.32 5 6 5 C6 4.34 6 3.68 6 3 C6.66 3.33 7.32 3.66 8 4 C7.34 6.97 6.68 9.94 6 13 C5.34 11.68 4.68 10.36 4 9 C1.69 9.33 -0.62 9.66 -3 10 C-0.69 10.33 1.62 10.66 4 11 C4.125 18.75 4.125 18.75 3 21 C2.34 21 1.68 21 1 21 C1 21.66 1 22.32 1 23 C-0.98 23 -2.96 23 -5 23 C-4.236875 22.46375 -3.47375 21.9275 -2.6875 21.375 C0.22864474 18.79794186 1.4705622 16.54185596 3 13 C-2.01535052 13.32960216 -2.01535052 13.32960216 -6 16 C-12.05240175 16.55021834 -12.05240175 16.55021834 -14.9375 14.875 C-16.52990283 12.06487736 -16.45319325 10.17235276 -16 7 C-13.98799381 4.16828758 -12.87928233 3.15012137 -9.4375 2.5625 C-7 3 -7 3 -5.625 4.4375 C-3.11333199 6.85256539 -0.36397973 6.68264342 3 7 C2.01 4.69 1.02 2.38 0 0 Z " fill="#FDEAEA" transform="translate(276,240)"/>
<path d="M0 0 C2.31 0 4.62 0 7 0 C7 8.58 7 17.16 7 26 C4.69 26 2.38 26 0 26 C0 17.42 0 8.84 0 0 Z " fill="#010001" transform="translate(240,236)"/>
<path d="M0 0 C4.65156533 1.7329361 7.29196906 3.83379855 10 8 C10 8.99 10 9.98 10 11 C6.6875 11.1875 6.6875 11.1875 3 11 C1.375 9.5 1.375 9.5 0 8 C-2.82594567 7.72429798 -4.45132831 7.72566416 -7 9 C-7 7.35 -7 5.7 -7 4 C-8.97536745 4.34786708 -8.97536745 4.34786708 -11 5 C-11.33 5.66 -11.66 6.32 -12 7 C-12.66 7 -13.32 7 -14 7 C-14 8.65 -14 10.3 -14 12 C-14.66 12 -15.32 12 -16 12 C-15.77183594 12.62648437 -15.54367188 13.25296875 -15.30859375 13.8984375 C-15.02113281 14.71570313 -14.73367187 15.53296875 -14.4375 16.375 C-14.14746094 17.18710938 -13.85742188 17.99921875 -13.55859375 18.8359375 C-13 21 -13 21 -14 23 C-16.65674502 18.46139393 -17.65728029 15.2582423 -17 10 C-13.30090764 2.74408806 -8.25966171 -1.03245771 0 0 Z " fill="#EB1818" transform="translate(269,236)"/>
<path d="M0 0 C3.37013879 0.67402776 4.51677007 1.7087875 6.5 4.5 C6.95319325 7.67235276 7.02990283 9.56487736 5.4375 12.375 C2.3930714 14.14273274 -0.0631012 13.86823916 -3.5 13.5 C-5.4375 12.375 -5.4375 12.375 -6.5 10.5 C-7.04624158 6.83237794 -6.97898298 5.1741242 -4.8125 2.125 C-2.5 0.5 -2.5 0.5 0 0 Z " fill="#FDF3F3" transform="translate(296.5,242.5)"/>
<path d="M0 0 C6.34507042 0.59859155 6.34507042 0.59859155 8.9375 2.1875 C10.5339636 4.91087907 10.38630872 6.90953021 10 10 C8.9375 11.875 8.9375 11.875 7 13 C3.3125 13.1875 3.3125 13.1875 0 13 C0 8.71 0 4.42 0 0 Z " fill="#FEE4E4" transform="translate(322,243)"/>
<path d="M0 0 C6.3782235 -0.36103152 6.3782235 -0.36103152 8.9375 1.125 C10.50422245 3.88980433 10.38976435 5.88188517 10 9 C8.9375 10.875 8.9375 10.875 7 12 C3.3125 12.1875 3.3125 12.1875 0 12 C0 8.04 0 4.08 0 0 Z " fill="#F5F5F5" transform="translate(218,243)"/>
<path d="M0 0 C1.670625 0.061875 1.670625 0.061875 3.375 0.125 C2.89653935 4.43114589 1.71573619 6.37380549 -1.625 9.125 C-4.64060854 10.13020285 -6.9015902 10.35601114 -10.0625 10.4375 C-11.48369141 10.49357422 -11.48369141 10.49357422 -12.93359375 10.55078125 C-15.625 10.125 -15.625 10.125 -19.625 6.125 C-13.685 7.61 -13.685 7.61 -7.625 9.125 C-7.955 8.135 -8.285 7.145 -8.625 6.125 C-11.12947516 4.90630071 -11.12947516 4.90630071 -13.625 4.125 C-13.295 3.465 -12.965 2.805 -12.625 2.125 C-10.954375 2.186875 -10.954375 2.186875 -9.25 2.25 C-4.7335682 2.09426097 -4.5164318 0.15573903 0 0 Z " fill="#E51616" transform="translate(275.625,252.875)"/>
<path d="M0 0 C0.05422947 1.4370809 0.09289723 2.87475462 0.125 4.3125 C0.14820313 5.11300781 0.17140625 5.91351563 0.1953125 6.73828125 C0 9 0 9 -2 12 C-4.3828125 12.29296875 -4.3828125 12.29296875 -7.125 12.1875 C-8.03507812 12.16042969 -8.94515625 12.13335937 -9.8828125 12.10546875 C-10.58148438 12.07066406 -11.28015625 12.03585938 -12 12 C-12 10.68 -12 9.36 -12 8 C-8.37 8 -4.74 8 -1 8 C-1 6.02 -1 4.04 -1 2 C-6.94 2 -12.88 2 -19 2 C-19 1.67 -19 1.34 -19 1 C-16.20837429 0.83262201 -13.41670379 0.66606598 -10.625 0.5 C-9.8309375 0.45230469 -9.036875 0.40460938 -8.21875 0.35546875 C-2.2265625 0 -2.2265625 0 0 0 Z " fill="#FFCED0" transform="translate(363,235)"/>
<path d="M0 0 C2.31 0.33 4.62 0.66 7 1 C7.33 2.65 7.66 4.3 8 6 C8.66 6 9.32 6 10 6 C8.84826645 8.46800047 7.95216435 10.04783565 6 12 C5.6596875 10.329375 5.6596875 10.329375 5.3125 8.625 C4.39376342 4.83961627 4.39376342 4.83961627 1.375 3.5625 C0.59125 3.376875 -0.1925 3.19125 -1 3 C-0.67 2.01 -0.34 1.02 0 0 Z " fill="#F80302" transform="translate(299,239)"/>
<path d="M0 0 C0.33 0 0.66 0 1 0 C1 7.92 1 15.84 1 24 C0.67 24 0.34 24 0 24 C0 20.7 0 17.4 0 14 C-0.66 14 -1.32 14 -2 14 C-2.28875 12.7625 -2.5775 11.525 -2.875 10.25 C-3.61334794 7.27551258 -4.44474933 4.666144 -6 2 C-3.525 2.99 -3.525 2.99 -1 4 C-0.67 2.68 -0.34 1.36 0 0 Z " fill="#FFF0EF" transform="translate(313,238)"/>
<path d="M0 0 C2.97 0 5.94 0 9 0 C9.125 7.75 9.125 7.75 8 10 C7.34 10 6.68 10 6 10 C6 10.66 6 11.32 6 12 C4.02 12 2.04 12 0 12 C0.763125 11.46375 1.52625 10.9275 2.3125 10.375 C5.22864474 7.79794186 6.4705622 5.54185596 8 2 C5.36 2.33 2.72 2.66 0 3 C0 2.01 0 1.02 0 0 Z " fill="#FCCDCA" transform="translate(271,251)"/>
<path d="M0 0 C0.66 0.33 1.32 0.66 2 1 C2 1.66 2 2.32 2 3 C2.99 3.33 3.98 3.66 5 4 C5 4.66 5 5.32 5 6 C5.66 6 6.32 6 7 6 C7 8.64 7 11.28 7 14 C6.67 14 6.34 14 6 14 C5.5978125 12.329375 5.5978125 12.329375 5.1875 10.625 C4.34190981 6.78159049 4.34190981 6.78159049 1 5 C-0.65 4.67 -2.3 4.34 -4 4 C-4 8.29 -4 12.58 -4 17 C-4.33 17 -4.66 17 -5 17 C-5.13489391 14.73078464 -5.23193995 12.4592933 -5.3125 10.1875 C-5.37050781 8.92292969 -5.42851562 7.65835938 -5.48828125 6.35546875 C-5 3 -5 3 -2.60546875 0.98828125 C-1.74566406 0.66214844 -0.88585937 0.33601562 0 0 Z " fill="#E31513" transform="translate(326,239)"/>
<path d="M0 0 C0.66 0.33 1.32 0.66 2 1 C2.125 7.75 2.125 7.75 1 10 C-2.3 10 -5.6 10 -9 10 C-9 9.01 -9 8.02 -9 7 C-6.03 7 -3.06 7 0 7 C0 4.69 0 2.38 0 0 Z " fill="#FEEFF0" transform="translate(361,246)"/>
<path d="M0 0 C-5.94 -0.33 -11.88 -0.66 -18 -1 C-18 -1.66 -18 -2.32 -18 -3 C-15.75308523 -3.2763585 -13.50215158 -3.52018861 -11.25 -3.75 C-9.99703125 -3.88921875 -8.7440625 -4.0284375 -7.453125 -4.171875 C-4 -4 -4 -4 0 0 Z " fill="#FFDBD9" transform="translate(333,238)"/>
<path d="M0 0 C0.33 0.66 0.66 1.32 1 2 C0.05125 2.28875 -0.8975 2.5775 -1.875 2.875 C-5.29061694 4.1046221 -6.44299081 4.94787154 -8.125 8.125 C-8.41375 8.74375 -8.7025 9.3625 -9 10 C-9.32523926 6.42236811 -9.42956587 4.60457419 -7.3125 1.625 C-4.61209763 -0.27258004 -3.22939919 -0.35882213 0 0 Z " fill="#FECBCA" transform="translate(299,243)"/>
<path d="M0 0 C2 1.8125 2 1.8125 4 4 C4 4.99 4 5.98 4 7 C0.6875 7.25 0.6875 7.25 -3 7 C-4.9375 5 -4.9375 5 -6 3 C-3.36 3.66 -0.72 4.32 2 5 C1.34 3.35 0.68 1.7 0 0 Z " fill="#D11A19" transform="translate(275,240)"/>
<path d="M0 0 C-0.33 0.66 -0.66 1.32 -1 2 C-1.804375 1.505 -2.60875 1.01 -3.4375 0.5 C-7.82002454 -1.34527349 -11.32315231 -1.28061086 -16 -1 C-16 -1.66 -16 -2.32 -16 -3 C-9.21238862 -4.23411116 -5.34138197 -4.63856855 0 0 Z " fill="#FEE3E0" transform="translate(276,238)"/>
<path d="M0 0 C1.32 0 2.64 0 4 0 C4 1.65 4 3.3 4 5 C3.01 5.495 3.01 5.495 2 6 C2 5.34 2 4.68 2 4 C1.34 4 0.68 4 0 4 C0 2.68 0 1.36 0 0 Z " fill="#F00607" transform="translate(273,254)"/>
</svg>
